<svg width="266" height="285" viewBox="0 0 266 285" fill="none" xmlns="http://www.w3.org/2000/svg">
<path d="M252.033 79.0721C252.033 82.6739 249.621 85.5937 246.646 85.5937C243.671 85.5937 241.259 82.6739 241.259 79.0721C241.259 75.4703 243.671 72.5504 246.646 72.5504C249.621 72.5504 252.033 75.4703 252.033 79.0721Z" fill="white"/>
<path d="M262.018 193.375C267.241 165.712 266.137 136.879 258.823 109.901C251.509 82.9225 238.255 58.7933 220.45 40.044C202.645 21.2948 180.947 8.61635 157.63 3.33865C134.313 -1.93904 110.237 0.378468 87.9277 10.0481C65.6183 19.7177 45.8976 36.3831 30.834 58.2963C15.7704 80.2094 5.91907 106.563 2.31327 134.592C-1.29254 162.621 1.48009 191.294 10.3403 217.602C19.2006 243.91 33.8219 266.884 52.6707 284.114L53.4742 282.859C34.8139 265.801 20.3388 243.057 11.5671 217.012C2.79548 190.967 0.0505767 162.581 3.62032 134.832C7.19007 107.083 16.9429 80.9934 31.8559 59.2994C46.7688 37.6053 66.2923 21.1066 88.3786 11.5336C110.465 1.96071 134.3 -0.333627 157.384 4.89129C180.467 10.1162 201.949 22.6678 219.576 41.2296C237.202 59.7914 250.324 83.6793 257.565 110.388C264.806 137.096 265.898 165.641 260.728 193.028L262.018 193.375Z" fill="url(#paint0_linear_2_85)"/>
<path d="M259.077 99.1387C259.077 97.7534 258.149 96.6304 257.005 96.6304C255.861 96.6304 254.933 97.7534 254.933 99.1387C254.933 100.524 255.861 101.647 257.005 101.647C258.149 101.647 259.077 100.524 259.077 99.1387Z" fill="white"/>
<path d="M249.961 79.0721C249.961 81.2886 248.477 83.0854 246.646 83.0854C244.815 83.0854 243.331 81.2886 243.331 79.0721C243.331 76.8556 244.815 75.0588 246.646 75.0588C248.477 75.0588 249.961 76.8556 249.961 79.0721Z" fill="#231F20"/>
<path d="M254.494 98.8709C252.905 94.259 251.134 89.7479 249.191 85.3518C249.328 85.2727 249.461 85.1875 249.592 85.0964C251.446 89.2997 253.143 93.608 254.676 98.0089C254.58 98.2817 254.518 98.5722 254.494 98.8709ZM256.685 101.156C256.344 100.11 255.994 99.0686 255.636 98.0326C255.937 97.4399 256.467 97.0796 257.005 97.0796C257.825 97.0796 258.628 97.9173 258.628 99.1387C258.628 100.36 257.825 101.198 257.005 101.198C256.897 101.198 256.79 101.183 256.685 101.156ZM249.216 84.2522C249.088 84.3486 248.956 84.438 248.821 84.52C248.615 84.0602 248.406 83.6016 248.196 83.1443C248.336 83.0697 248.471 82.9853 248.6 82.8919C248.808 83.3441 249.013 83.7975 249.216 84.2522ZM247.352 83.4579C247.573 83.9394 247.792 84.4223 248.01 84.9067C247.574 85.0619 247.115 85.1446 246.646 85.1446C243.996 85.1446 241.708 82.51 241.708 79.0721C241.708 77.4114 242.242 75.9382 243.093 74.8588C243.325 75.2952 243.555 75.7329 243.784 76.1721C243.216 76.9642 242.882 77.9872 242.882 79.0721C242.882 81.4525 244.491 83.5346 246.646 83.5346C246.889 83.5346 247.124 83.5082 247.352 83.4579ZM248.212 82.0515C248.086 82.154 247.953 82.2444 247.816 82.3215C246.867 80.2851 245.881 78.2747 244.858 76.2918C244.977 76.1737 245.104 76.0673 245.236 75.9739C246.266 77.9724 247.258 79.9988 248.212 82.0515ZM244.261 77.0951C245.192 78.9121 246.092 80.7521 246.961 82.6142C246.857 82.6288 246.752 82.6363 246.646 82.6363C245.14 82.6363 243.78 81.1247 243.78 79.0721C243.78 78.3261 243.96 77.6516 244.261 77.0951ZM244.817 75.1656C244.681 75.2552 244.551 75.3544 244.427 75.4623C244.2 75.029 243.972 74.5969 243.741 74.1662C243.865 74.0554 243.993 73.9515 244.125 73.8549C244.358 74.2905 244.588 74.7273 244.817 75.1656ZM243.694 73.0521C243.56 73.1461 243.43 73.2463 243.303 73.3523C236.81 61.3697 228.948 50.4468 219.901 40.9203C202.219 22.2997 180.66 9.69933 157.483 4.4532C134.304 -0.793151 110.372 1.51136 88.1999 11.1215C66.0292 20.7311 46.4418 37.2881 31.4857 59.0449C16.5298 80.8014 6.75309 106.96 3.17482 134.775C-0.40345 162.59 2.34767 191.045 11.1414 217.155C19.8915 243.136 34.3057 265.85 52.8923 282.935L52.5806 283.422C33.9825 266.288 19.5424 243.517 10.766 217.458C1.92791 191.216 -0.838511 162.612 2.75877 134.649C6.35606 106.686 16.1835 80.4014 31.2042 58.5507C46.2246 36.7003 65.8815 20.0932 88.1063 10.4602C110.33 0.827821 134.308 -1.47952 157.53 3.77675C180.754 9.03324 202.376 21.6629 220.124 40.3533C229.238 49.9506 237.158 60.964 243.694 73.0521ZM244.898 73.3953C245.446 73.1389 246.036 72.9996 246.646 72.9996C249.296 72.9996 251.583 75.6342 251.583 79.0721C251.583 80.9101 250.93 82.5185 249.916 83.6175C249.71 83.1596 249.503 82.7031 249.293 82.2478C249.991 81.4253 250.41 80.2876 250.41 79.0721C250.41 76.6917 248.801 74.6096 246.646 74.6096C246.289 74.6096 245.947 74.6666 245.625 74.7726C245.385 74.312 245.143 73.8529 244.898 73.3953ZM248.865 81.3258C247.96 79.3894 247.02 77.4763 246.048 75.5879C246.243 75.5354 246.443 75.508 246.646 75.508C248.152 75.508 249.512 77.0195 249.512 79.0721C249.512 79.9465 249.265 80.7228 248.865 81.3258ZM255.961 101.836C256.832 104.532 257.642 107.26 258.389 110.018C265.643 136.776 266.774 165.364 261.666 192.815L261.247 192.702C266.341 165.374 265.221 136.912 257.998 110.27C257.182 107.261 256.292 104.287 255.329 101.352C255.515 101.548 255.727 101.712 255.961 101.836Z" stroke="white" stroke-opacity="0.74" stroke-width="0.898346"/>
<defs>
<linearGradient id="paint0_linear_2_85" x1="242.664" y1="88.9498" x2="119.146" y2="274.899" gradientUnits="userSpaceOnUse">
<stop stop-color="white"/>
<stop offset="1" stop-color="white" stop-opacity="0"/>
</linearGradient>
</defs>
</svg>
