<svg width="56" height="50" viewBox="0 0 56 50" fill="none" xmlns="http://www.w3.org/2000/svg">
<path d="M26.7164 0.999961L6.74367 14.0905" stroke="#FEFEFE"/>
<line y1="-0.5" x2="19.7013" y2="-0.5" transform="matrix(0.643205 0.765694 -0.746593 0.665281 6.58127 14.0905)" stroke="#FEFEFE"/>
<line y1="-0.5" x2="19.2151" y2="-0.5" transform="matrix(0.787448 -0.616381 0.593752 0.804648 21.7121 27.5413)" stroke="#FEFEFE"/>
<line y1="-0.5" x2="22.1469" y2="-0.5" transform="matrix(0.710533 0.703664 -0.682416 0.730964 39.2639 16.9442)" stroke="#FEFEFE"/>
<line y1="-0.5" x2="19.6952" y2="-0.5" transform="matrix(-0.798982 0.601355 -0.578663 -0.815567 55 32.7913)" stroke="#FEFEFE"/>
<path d="M21.202 4.64101L0.913668 17.2062" stroke="#FEFEFE"/>
<line y1="-0.5" x2="19.7012" y2="-0.5" transform="matrix(0.624167 0.782233 -0.762714 0.645587 0.751221 17.2019)" stroke="#FEFEFE"/>
<line y1="-0.5" x2="19.2152" y2="-0.5" transform="matrix(0.802352 -0.595635 0.573774 0.819885 15.5464 31.0432)" stroke="#FEFEFE"/>
<line y1="-0.5" x2="22.1469" y2="-0.5" transform="matrix(0.692997 0.721976 -0.700176 0.712925 33.3532 20.9074)" stroke="#FEFEFE"/>
<line y1="-0.5" x2="19.6953" y2="-0.5" transform="matrix(-0.813512 0.580313 -0.558421 -0.830408 48.6946 37.1601)" stroke="#FEFEFE"/>
</svg>
